<svg width="30" height="30" viewBox="0 0 30 30" fill="none" xmlns="http://www.w3.org/2000/svg">
<path d="M2.59116 7.8325C2.83298 7.525 3.15144 7.10875 3.40648 6.81125C4.17026 5.99125 4.26936 5.88375 4.96443 5.2775C5.17057 5.1175 5.41503 4.925 5.6542 4.74375C3.89012 6.15625 3.66547 7.72 5.28421 8.68625C5.28156 8.68625 5.28156 8.68625 5.28156 8.68875C7.54515 9.97875 12.5057 9.7 16.4198 8.0475C20.2109 6.4475 21.6103 4.15875 19.7392 2.79875C18.0966 2.5075 16.1383 2.47375 14.0663 2.73625L13.8509 2.4L14.0293 1.8425C15.2477 1.73875 16.4052 1.76375 17.4042 1.925C17.646 1.96375 17.9645 2.03 18.2024 2.0775C18.6622 2.18375 18.912 2.2475 19.2119 2.33875C19.5185 2.425 19.7801 2.51125 20.236 2.67125C20.6826 2.8375 20.8756 2.9125 21.2337 3.08125C21.6347 3.25433 22.0243 3.4501 22.4005 3.6675C25.3816 5.44125 23.5277 8.6775 18.2671 10.895C13.0211 13.105 6.33605 13.4525 3.34041 11.7C3.33909 11.6975 3.33512 11.695 3.32719 11.6925H3.33248C1.69657 10.7125 1.52478 9.29 2.59116 7.8325ZM16.2401 20.2325L16.1978 18.24L14.7006 16.665C9.75455 17.725 4.89307 17.4975 2.18946 15.9913C2.18021 15.9812 2.15774 15.9713 2.14849 15.9613C0.618293 15.07 0.240369 13.92 0.355332 12.67C-0.00277125 14.4987 -0.0318424 15.1587 0.0196928 16.7237C0.0831207 17.7037 0.681721 18.6075 1.88553 19.32L1.89478 19.33C4.77678 21.025 10.7813 21.3925 16.2401 20.2325ZM22.4837 22.5138C15.5027 25.1625 6.76551 25.3188 2.97041 22.8675C3.38026 23.815 3.93792 24.6989 4.62482 25.49C8.10807 27.74 16.1277 27.5963 22.5326 25.165C26.2815 23.7437 28.6468 21.8525 29.2679 20.08L29.4423 19.5462C29.8559 18.1938 29.9339 17.0675 29.9999 16.065C29.9246 18.2413 27.2144 20.7162 22.4837 22.5138ZM7.0734 27.615C7.29276 27.8125 7.98253 28.6138 11.4777 29.4988C12.4225 29.6963 14.801 30.33 19.1947 29.4088L19.2212 29.03L18.8736 28.515C14.7971 29.4275 10.2686 29.1225 7.0734 27.615ZM17.1611 11.8538L20.8729 14.515C20.8729 14.515 21.6671 15.0562 20.9179 15.4362C20.1713 15.8125 18.2539 16.7337 18.2539 16.7337L16.3603 16.065L15.4102 16.465L17.0858 17.8412L17.099 19.9825L18.0834 19.5688L18.7362 17.76C18.7362 17.76 20.7408 17.03 21.5363 16.755C22.3357 16.4862 22.2287 17.4062 22.2287 17.4062L21.8349 21.795L23.1431 21.245L25.297 15.3237C25.297 15.3237 26.4387 14.7987 27.2421 14.3375C28.0442 13.8763 28.3191 13.1112 28.3191 13.1112C28.3191 13.1112 27.5368 12.7925 26.6356 13.0487C25.7344 13.3025 24.5597 13.755 24.5597 13.755L18.4653 11.3062L17.1611 11.8538ZM9.30791 3.43375L11.8279 5.3325L12.5163 5.235L11.1447 3.53125C11.1447 3.53125 10.846 3.17875 11.2477 3.095C11.6521 3.01 12.6749 2.8125 12.6749 2.8125L13.4439 3.39375L13.9619 3.32125L13.3752 2.43875L13.6844 1.46L13.1836 1.52875L12.5903 2.27375C12.5903 2.27375 11.549 2.36625 11.1394 2.39875C10.7271 2.42875 10.9042 2.01 10.9042 2.01L11.6944 0L11.002 0.09625L9.17842 2.6075C9.17842 2.6075 8.57056 2.7125 8.13053 2.83125C7.68918 2.94875 7.45661 3.27125 7.45661 3.27125C7.45661 3.27125 7.78036 3.51875 8.23625 3.51C8.6961 3.50125 9.30791 3.43375 9.30791 3.43375ZM21.7622 27.8312L20.1316 27.025L19.7563 27.1488L20.7223 27.9662C20.7223 27.9662 20.9284 28.1325 20.7117 28.2212C20.495 28.3088 19.9427 28.5238 19.9427 28.5238L19.4868 28.3313L19.2159 28.4237L19.5951 28.8062L19.5581 29.365L19.8409 29.2725L20.0523 28.8188C20.0523 28.8188 20.6258 28.6575 20.8544 28.6C21.0817 28.5412 21.0302 28.7938 21.0302 28.7938L20.8148 30L21.1914 29.8762L21.9301 28.2812C21.9301 28.2812 22.2565 28.16 22.4903 28.0487C22.7242 27.9375 22.8167 27.7325 22.8167 27.7325C22.8167 27.7325 22.6093 27.625 22.3529 27.6787C22.0952 27.73 21.7622 27.8312 21.7622 27.8312Z" fill="white"/>
</svg>
